<?xml version="1.0" standalone="no"?>
<!DOCTYPE svg PUBLIC "-//W3C//DTD SVG 20010904//EN"
 "http://www.w3.org/TR/2001/REC-SVG-20010904/DTD/svg10.dtd">
<svg version="1.0" xmlns="http://www.w3.org/2000/svg"
 width="360" height="105" viewBox="28 248 360 105"
 preserveAspectRatio="xMidYMid meet">

<g transform="translate(0.000000,612.000000) scale(0.100000,-0.100000)"
fill="currentColor" stroke="none">
<path d="M360 3518 c-19 -21 -20 -33 -20 -458 0 -361 2 -440 14 -456 14 -18
31 -19 375 -22 l361 -3 25 25 c18 19 25 36 25 66 l0 40 -40 0 c-36 0 -40 -2
-40 -25 l0 -25 -325 0 -325 0 0 400 0 400 325 0 325 0 0 -120 0 -120 40 0 40
0 0 134 c0 120 -2 136 -21 160 l-20 26 -359 0 c-357 0 -359 0 -380 -22z"/>
<path d="M540 3270 l0 -40 155 0 155 0 0 40 0 40 -155 0 -155 0 0 -40z"/>
<path d="M3030 3191 c-16 -31 4 -63 37 -59 34 4 52 32 37 56 -16 26 -60 28
-74 3z"/>
<path d="M2615 3192 c-3 -3 -5 -97 -5 -209 l0 -203 35 0 35 0 0 147 c0 129 2
145 15 133 8 -8 54 -73 103 -145 88 -129 89 -130 131 -133 l41 -3 -2 208 c-3
191 -4 208 -20 207 -10 -1 -27 -2 -39 -3 -20 -1 -21 -5 -17 -141 1 -77 1 -140
-3 -140 -4 0 -152 212 -191 273 -7 11 -74 18 -83 9z"/>
<path d="M1780 3135 c0 -41 -2 -45 -25 -45 -34 0 -37 -47 -2 -52 21 -3 22 -7
25 -114 3 -130 13 -147 85 -148 38 -1 42 1 45 26 3 23 -1 27 -25 30 l-28 3 -3
103 -3 102 31 0 c25 0 30 4 30 25 0 21 -5 25 -30 25 -29 0 -30 2 -30 45 0 45
0 45 -35 45 -35 0 -35 0 -35 -45z"/>
<path d="M540 3060 l0 -40 155 0 155 0 0 40 0 40 -155 0 -155 0 0 -40z"/>
<path d="M1195 3086 c-141 -63 -121 -288 27 -312 20 -4 53 -3 72 0 37 7 96 57
96 82 0 22 -59 18 -78 -6 -10 -11 -31 -23 -49 -26 -27 -5 -37 -1 -63 24 -55
55 -45 62 86 62 l117 0 -6 39 c-8 66 -35 108 -81 131 -49 23 -79 25 -121 6z
m103 -63 c12 -10 22 -27 24 -38 3 -18 -3 -20 -74 -23 -88 -3 -99 8 -53 53 29
30 74 33 103 8z"/>
<path d="M1504 3080 c-34 -17 -64 -53 -64 -75 0 -3 15 -5 33 -5 21 0 36 7 45
20 25 41 112 18 112 -31 0 -20 -10 -23 -90 -34 -59 -7 -106 -36 -112 -69 -14
-74 32 -120 115 -113 26 2 56 12 67 22 18 16 20 16 26 1 4 -10 18 -16 35 -16
l29 0 0 115 c0 65 -5 125 -12 139 -12 28 -81 66 -119 66 -13 0 -42 -9 -65 -20z
m124 -188 c8 -52 -84 -94 -122 -56 -34 33 -10 64 57 75 55 8 61 7 65 -19z"/>
<path d="M2020 3077 c-59 -31 -85 -76 -85 -147 0 -67 30 -120 79 -144 69 -32
157 -12 200 47 30 40 30 154 0 193 -52 71 -123 89 -194 51z m115 -59 c28 -25
42 -80 31 -123 -22 -88 -134 -86 -161 3 -17 59 29 142 79 142 14 0 37 -10 51
-22z"/>
<path d="M3546 3090 c-39 -12 -66 -38 -87 -85 -25 -54 -24 -102 4 -155 26 -51
73 -80 132 -80 91 0 150 62 150 160 0 72 -27 118 -85 148 -47 23 -67 26 -114
12z m86 -61 c45 -24 59 -124 24 -171 -36 -49 -114 -36 -135 22 -15 44 -14 75
4 110 24 47 64 62 107 39z"/>
<path d="M920 2935 l0 -155 30 0 29 0 3 123 3 122 53 -3 52 -3 0 35 0 36 -85
0 -85 0 0 -155z"/>
<path d="M2280 2935 l0 -155 35 0 34 0 3 123 3 122 53 3 c50 3 52 4 52 33 l0
29 -90 0 -90 0 0 -155z"/>
<path d="M3030 2935 l0 -155 35 0 35 0 0 155 0 155 -35 0 -35 0 0 -155z"/>
<path d="M3166 2993 c20 -54 45 -124 57 -155 l21 -58 43 0 c39 0 43 2 52 33
16 56 80 231 91 249 15 26 13 28 -28 28 l-38 0 -33 -107 c-44 -148 -42 -142
-51 -118 -5 11 -23 66 -41 123 l-33 102 -38 0 -37 0 35 -97z"/>
<path d="M540 2860 l0 -41 128 3 127 3 0 35 0 35 -127 3 -128 3 0 -41z"/>
</g>
</svg>
