<?xml version="1.0" standalone="no"?>
<!DOCTYPE svg PUBLIC "-//W3C//DTD SVG 20010904//EN"
 "http://www.w3.org/TR/2001/REC-SVG-20010904/DTD/svg10.dtd">
<svg version="1.0" xmlns="http://www.w3.org/2000/svg"
 width="360" height="105" viewBox="28 248 360 105"
 preserveAspectRatio="xMidYMid meet">

<g transform="translate(0.000000,612.000000) scale(0.100000,-0.100000)"
fill="currentColor" stroke="none">
<path d="M384 3536 c-20 -9 -35 -25 -43 -46 -7 -23 -11 -162 -11 -437 0 -425
2 -450 45 -467 9 -3 174 -6 366 -6 l350 0 24 25 c18 18 25 35 25 65 l0 40 -40
0 c-36 0 -40 -2 -40 -25 l0 -25 -320 0 -320 0 0 400 0 400 320 0 320 0 0 -120
0 -120 40 0 40 0 0 131 c0 72 -5 139 -10 150 -25 46 -48 49 -392 49 -249 -1
-330 -4 -354 -14z"/>
<path d="M537 3303 c-9 -9 -9 -55 1 -68 4 -6 69 -10 159 -10 l153 0 0 43 0 42
-153 0 c-85 0 -157 -3 -160 -7z"/>
<path d="M3029 3186 c-15 -33 4 -58 39 -54 55 7 54 70 -1 76 -21 3 -30 -3 -38
-22z"/>
<path d="M2612 2988 l3 -213 33 -3 32 -3 1 58 c0 32 0 97 -1 146 -1 52 3 87 9
87 5 0 54 -65 108 -145 97 -145 97 -146 133 -143 l35 3 3 213 2 212 -40 0 -39
0 -3 -146 -3 -146 -99 146 c-99 146 -99 146 -138 146 l-38 0 2 -212z"/>
<path d="M1770 3135 c0 -38 -3 -45 -20 -45 -15 0 -20 -7 -20 -25 0 -18 5 -25
19 -25 18 0 20 -10 23 -111 3 -107 4 -112 31 -135 19 -17 40 -24 68 -24 37 0
39 2 39 29 0 25 -4 30 -27 33 l-28 3 -3 103 -3 102 31 0 c25 0 30 4 30 25 0
21 -5 25 -30 25 -29 0 -30 2 -30 45 l0 45 -40 0 -40 0 0 -45z"/>
<path d="M530 3076 c0 -56 0 -56 166 -56 l154 0 0 40 0 40 -160 0 -160 0 0
-24z"/>
<path d="M1184 3080 c-108 -54 -115 -227 -12 -290 64 -39 174 -17 203 41 20
38 20 39 -18 39 -20 0 -39 -8 -50 -20 -26 -31 -90 -27 -116 6 -38 49 -31 53
92 56 l112 3 -3 35 c-4 62 -31 108 -77 130 -52 25 -79 25 -131 0z m101 -46
c18 -7 47 -58 38 -68 -4 -3 -40 -6 -80 -6 -72 0 -74 1 -68 23 13 45 63 68 110
51z"/>
<path d="M1513 3089 c-33 -10 -73 -51 -73 -75 0 -23 63 -18 78 6 16 26 73 27
95 2 36 -39 14 -62 -61 -62 -110 0 -170 -94 -103 -161 25 -24 38 -29 79 -29
34 0 57 6 75 20 25 20 25 20 30 -1 4 -16 12 -20 34 -17 l28 3 3 115 c3 124 -5
159 -44 185 -31 20 -100 27 -141 14z m115 -192 c13 -64 -114 -107 -134 -45 -8
27 15 49 63 58 52 11 67 8 71 -13z"/>
<path d="M2035 3090 c-58 -18 -105 -91 -105 -164 0 -48 40 -117 80 -138 26
-14 49 -18 88 -15 94 7 137 59 137 164 0 66 -16 98 -66 135 -30 22 -94 30
-134 18z m92 -65 c28 -19 47 -78 39 -118 -14 -71 -85 -100 -133 -55 -19 18
-23 32 -23 80 0 49 4 63 25 83 28 28 61 32 92 10z"/>
<path d="M3523 3080 c-103 -53 -113 -219 -17 -284 107 -72 244 5 244 137 0 41
-37 115 -70 139 -41 29 -108 33 -157 8z m122 -66 c33 -36 35 -118 4 -158 -42
-53 -121 -24 -135 50 -18 99 71 172 131 108z"/>
<path d="M912 2933 l3 -158 35 0 35 0 3 126 3 126 49 -5 50 -5 0 37 0 36 -90
0 -91 0 3 -157z"/>
<path d="M2282 2933 l3 -158 33 -3 32 -3 0 130 0 130 53 -2 c52 -2 52 -2 55
31 l3 32 -91 0 -91 0 3 -157z"/>
<path d="M3032 2933 l3 -158 33 -3 32 -3 0 160 0 161 -35 0 -36 0 3 -157z"/>
<path d="M3136 3073 c3 -10 29 -81 58 -158 l52 -140 38 0 c43 0 33 -17 105
182 23 62 41 117 41 123 0 5 -15 10 -34 10 -33 0 -34 0 -59 -82 -14 -46 -29
-95 -32 -111 -8 -31 -23 -44 -29 -25 -3 7 -19 59 -36 116 l-32 102 -38 0 c-31
0 -37 -3 -34 -17z"/>
<path d="M535 2901 c-7 -6 -6 -46 1 -65 5 -13 27 -16 135 -16 l129 0 0 40 c0
22 -3 40 -7 41 -28 4 -254 4 -258 0z"/>
</g>
</svg>
